<svg width="509" height="144" viewBox="0 0 509 144" fill="none" xmlns="http://www.w3.org/2000/svg">
<path d="M171.276 34.6055H197.976C202.376 34.6055 205.876 35.7055 208.176 37.9055C210.576 40.1055 211.776 42.8055 211.776 46.1055C211.776 48.8055 210.876 51.2055 209.176 53.1055C208.076 54.4055 206.376 55.4055 204.176 56.2055C207.476 57.0055 209.976 58.4055 211.476 60.3055C213.076 62.2055 213.776 64.7055 213.776 67.6055C213.776 70.0055 213.176 72.1055 212.076 74.1055C210.976 76.0055 209.476 77.5055 207.476 78.6055C206.276 79.3055 204.476 79.8055 202.076 80.1055C198.876 80.5055 196.776 80.7055 195.676 80.7055H171.076V34.6055H171.276ZM185.676 52.7055H191.876C194.076 52.7055 195.676 52.3055 196.476 51.6055C197.376 50.8055 197.776 49.7055 197.776 48.3055C197.776 47.0055 197.376 45.9055 196.476 45.2055C195.576 44.4055 194.076 44.1055 191.876 44.1055H185.576V52.7055H185.676ZM185.676 70.8055H192.976C195.476 70.8055 197.176 70.4055 198.176 69.5055C199.176 68.6055 199.676 67.5055 199.676 66.0055C199.676 64.6055 199.176 63.5055 198.176 62.7055C197.176 61.9055 195.476 61.5055 192.976 61.5055H185.776V70.8055H185.676Z" fill="white"/>
<path d="M218.977 80.7055V34.6055H242.777C247.177 34.6055 250.577 35.0055 252.877 35.7055C255.177 36.5055 257.077 37.9055 258.477 39.9055C259.877 41.9055 260.577 44.4055 260.577 47.4055C260.577 50.0055 260.077 52.2055 258.977 54.0055C257.877 55.9055 256.377 57.4055 254.477 58.5055C253.277 59.2055 251.577 59.8055 249.477 60.3055C251.177 60.9055 252.377 61.4055 253.177 62.0055C253.677 62.4055 254.477 63.2055 255.477 64.4055C256.477 65.6055 257.177 66.6055 257.477 67.3055L264.377 80.7055H248.277L240.677 66.6055C239.677 64.8055 238.877 63.6055 238.077 63.0055C237.077 62.3055 235.877 61.9055 234.577 61.9055H233.277V80.7055H218.977ZM233.277 53.3055H239.277C239.977 53.3055 241.177 53.1055 243.077 52.7055C243.977 52.5055 244.777 52.0055 245.377 51.3055C245.977 50.5055 246.277 49.6055 246.277 48.6055C246.277 47.1055 245.777 46.0055 244.877 45.2055C243.977 44.4055 242.177 44.0055 239.577 44.0055H233.277V53.3055Z" fill="white"/>
<path d="M294.676 73.1055H278.476L276.176 80.7055H261.576L278.876 34.6055H294.476L311.776 80.7055H296.876L294.676 73.1055ZM291.776 63.1055L286.676 46.5055L281.676 63.1055H291.776Z" fill="white"/>
<path d="M311.477 65.4047L325.077 64.6047C325.377 66.8047 325.977 68.5047 326.877 69.6047C328.377 71.5047 330.477 72.4047 333.177 72.4047C335.177 72.4047 336.777 71.9047 337.877 71.0047C338.977 70.0047 339.577 68.9047 339.577 67.7047C339.577 66.5047 339.077 65.4047 337.977 64.5047C336.877 63.6047 334.477 62.7047 330.677 61.8047C324.377 60.4047 319.977 58.5047 317.277 56.2047C314.577 53.9047 313.277 50.9047 313.277 47.3047C313.277 44.9047 313.977 42.7047 315.377 40.6047C316.777 38.5047 318.777 36.8047 321.577 35.6047C324.377 34.4047 328.077 33.8047 332.877 33.8047C338.777 33.8047 343.277 34.9047 346.377 37.1047C349.477 39.3047 351.277 42.8047 351.877 47.6047L338.477 48.4047C338.077 46.3047 337.377 44.8047 336.277 43.9047C335.177 43.0047 333.577 42.5047 331.577 42.5047C329.877 42.5047 328.677 42.9047 327.877 43.6047C327.077 44.3047 326.577 45.2047 326.577 46.2047C326.577 46.9047 326.877 47.6047 327.577 48.2047C328.277 48.8047 329.877 49.4047 332.377 49.9047C338.577 51.2047 343.077 52.6047 345.777 54.0047C348.477 55.4047 350.477 57.1047 351.677 59.1047C352.877 61.1047 353.477 63.4047 353.477 65.9047C353.477 68.9047 352.677 71.6047 350.977 74.1047C349.377 76.6047 347.077 78.5047 344.077 79.8047C341.177 81.1047 337.477 81.7047 332.977 81.7047C325.177 81.7047 319.677 80.2047 316.677 77.2047C313.577 73.9047 311.877 70.1047 311.477 65.4047Z" fill="white"/>
<path d="M372.777 34.6055H358.477V80.7055H372.777V34.6055Z" fill="white"/>
<path d="M380.377 34.6055H394.677V69.3055H416.877V80.7055H380.377V34.6055Z" fill="white"/>
<path d="M199.577 135.305H183.377L181.077 142.905H166.477L183.777 96.8047H199.377L216.677 142.905H201.877L199.577 135.305ZM196.677 125.405L191.577 108.805L186.577 125.405H196.677Z" fill="white"/>
<path d="M211.076 96.8047H254.476V108.205H239.876V142.905H225.676V108.205H211.076V96.8047Z" fill="white"/>
<path d="M288.377 96.8051H302.577V124.305C302.577 127.005 302.177 129.605 301.277 132.005C300.377 134.405 299.077 136.505 297.277 138.405C295.477 140.205 293.577 141.505 291.577 142.205C288.777 143.205 285.477 143.705 281.577 143.705C279.377 143.705 276.877 143.505 274.177 143.205C271.477 142.905 269.277 142.305 267.477 141.305C265.677 140.405 264.077 139.005 262.577 137.305C261.077 135.605 260.077 133.805 259.577 132.005C258.677 129.105 258.277 126.505 258.277 124.205V96.7051H272.477V124.805C272.477 127.305 273.177 129.305 274.577 130.705C275.977 132.105 277.877 132.805 280.377 132.805C282.877 132.805 284.777 132.105 286.177 130.705C287.577 129.305 288.277 127.305 288.277 124.805V96.8051H288.377Z" fill="white"/>
<path d="M335.577 135.305H319.377L317.077 142.905H302.477L319.777 96.8047H335.377L352.677 142.905H337.877L335.577 135.305ZM332.677 125.405L327.577 108.805L322.577 125.405H332.677Z" fill="white"/>
<path d="M354.977 143.005V96.9053H378.777C383.177 96.9053 386.577 97.3052 388.877 98.0052C391.177 98.8052 393.077 100.205 394.477 102.205C395.877 104.205 396.577 106.705 396.577 109.705C396.577 112.305 396.077 114.505 394.977 116.305C393.877 118.205 392.377 119.705 390.477 120.805C389.277 121.505 387.577 122.105 385.477 122.605C387.177 123.205 388.377 123.705 389.177 124.305C389.677 124.705 390.477 125.505 391.477 126.705C392.477 127.905 393.177 128.905 393.477 129.605L400.377 143.005H384.277L376.677 128.905C375.677 127.105 374.877 125.905 374.077 125.305C373.077 124.605 371.877 124.205 370.577 124.205H369.277V142.905H354.977V143.005ZM369.277 115.505H375.277C375.977 115.505 377.177 115.305 379.077 114.905C379.977 114.705 380.777 114.205 381.377 113.505C381.977 112.705 382.277 111.805 382.277 110.805C382.277 109.305 381.777 108.205 380.877 107.405C379.977 106.605 378.177 106.205 375.577 106.205H369.277V115.505Z" fill="white"/>
<path d="M417.277 96.8047H402.977V142.905H417.277V96.8047Z" fill="white"/>
<path d="M453.276 135.305H437.076L434.776 142.905H420.176L437.476 96.8047H453.076L470.376 142.905H455.476L453.276 135.305ZM450.276 125.405L445.176 108.805L440.176 125.405H450.276Z" fill="white"/>
<path d="M472.477 96.8047H486.677V131.605H508.977V142.905H472.477V96.8047Z" fill="white"/>
<path d="M43.877 137.605C45.877 132.705 47.877 128.005 49.877 123.205C58.277 126.505 66.777 128.005 75.777 127.305C84.677 126.605 92.877 123.805 100.677 119.205C103.377 123.605 106.077 128.005 108.877 132.505C100.577 137.705 91.677 140.905 82.077 142.305C68.9769 144.305 56.277 142.705 43.877 137.605Z" fill="white"/>
<path d="M122.076 95.6051C130.876 77.1051 131.076 46.8051 104.576 26.6051C107.676 22.4051 110.676 18.3051 113.776 14.2051C151.076 41.2051 152.476 96.9051 117.876 125.905C114.576 122.005 111.176 118.105 107.776 114.105C112.776 109.705 116.976 104.605 120.276 98.7051" fill="white"/>
<path d="M107.676 87.7047C107.776 87.3047 107.876 86.9047 108.076 86.6047C111.076 79.3047 111.876 71.7047 110.376 63.9047C107.176 46.5047 91.8762 32.9047 74.2762 32.0047C73.2762 31.9047 73.0762 31.6047 73.0762 30.7047C73.0762 26.1047 73.0762 19.9047 73.0762 15.3047H70.0762C70.0762 20.0047 70.0762 26.2047 70.0762 30.8047C70.0762 31.7047 69.7762 32.0047 68.8762 32.0047C52.4762 32.9047 37.9762 44.6047 33.4762 60.5047C30.9762 69.2047 31.4762 77.9047 34.8762 86.3047C34.9762 86.6047 35.0762 86.9047 35.1762 87.1047C35.1762 87.2047 35.1762 87.3047 35.1762 87.5047C30.5762 90.2047 25.8762 92.8047 21.0762 95.6047L22.3762 98.3047C27.2762 95.5047 31.8762 92.8047 36.6762 90.0047C36.9762 90.5047 37.2762 90.9047 37.4762 91.3047C45.4762 105.005 61.4762 112.705 76.9762 110.405C89.4762 108.505 98.9762 102.105 105.576 91.3047C106.176 90.4047 106.576 90.3047 107.476 90.8047C111.376 93.1047 115.376 95.4047 119.276 97.6047C119.676 97.8047 120.076 98.2047 120.476 98.4047C121.076 97.1047 121.776 96.7047 122.176 95.8047C117.476 93.5047 112.276 90.4047 107.676 87.7047ZM70.7762 108.005C50.7762 107.605 34.6762 91.0047 34.9762 70.7047C35.1762 51.0047 51.9762 34.7047 71.5762 34.9047C92.2762 35.1047 108.476 51.5047 108.076 72.4047C107.676 92.8047 90.4762 108.405 70.7762 108.005Z" fill="white"/>
<path d="M37.6767 8.60509C11.7767 23.1051 -1.12332 45.8051 0.0766807 75.3051C1.07668 100.105 13.2767 119.105 34.0767 132.705C36.8767 128.105 39.5767 123.705 42.2767 119.205C36.8767 115.905 32.3767 111.905 28.4767 107.205C28.4767 107.205 27.8767 106.505 27.0767 105.405C26.5767 104.805 26.1767 104.205 25.7767 103.605C25.7767 103.505 25.6767 103.505 25.6767 103.405C25.0767 102.605 24.5767 101.705 23.9767 100.905C23.4767 100.205 23.0767 99.4051 22.6767 98.7051C22.6767 98.6051 22.5767 98.6051 22.5767 98.5051C21.9767 97.5051 21.3767 96.4051 20.8767 95.3051C20.4767 94.4051 20.0767 93.5051 19.7767 92.6051C18.5767 89.8051 17.6767 87.0051 17.0767 84.1051C16.6767 82.6051 16.5767 81.7051 16.5767 81.7051C16.5767 81.7051 16.4767 80.9051 16.3767 80.5051C14.4767 68.2051 16.3767 56.5051 22.1767 45.5051C27.7767 34.9051 36.0767 26.9051 46.7767 21.5051C50.1767 19.8051 53.6767 18.5051 57.2767 17.6051C57.2767 17.6051 64.5767 15.6051 71.4767 15.7051C72.0767 15.7051 72.7767 15.7051 73.3767 15.8051C73.4767 15.8051 73.4767 15.8051 73.5767 15.8051C74.1767 15.8051 74.7767 15.9051 75.2767 15.9051C78.2767 16.1051 81.2767 16.5051 84.1767 17.2051C85.0767 17.4051 85.6767 17.6051 85.6767 17.6051C90.4767 18.9051 95.0767 20.7051 99.5767 23.2051C102.177 18.6051 104.777 14.2051 107.377 9.8051C88.3767 -1.6949 60.6767 -4.29491 37.6767 8.60509Z" fill="white"/>
</svg>
