<svg width="509" height="144" viewBox="0 0 509 144" fill="none" xmlns="http://www.w3.org/2000/svg">
<path d="M171.177 34.9004H197.877C202.277 34.9004 205.777 36.0004 208.077 38.2004C210.477 40.4004 211.677 43.1004 211.677 46.4004C211.677 49.1004 210.777 51.5004 209.177 53.4004C208.077 54.7004 206.377 55.7004 204.177 56.5004C207.477 57.3004 209.977 58.7004 211.477 60.6004C213.077 62.5004 213.777 65.0004 213.777 67.9004C213.777 70.3004 213.177 72.4004 212.077 74.4004C210.977 76.3004 209.477 77.8004 207.477 78.9004C206.277 79.6004 204.477 80.1004 202.077 80.4004C198.877 80.8004 196.777 81.0004 195.677 81.0004H171.177V34.9004ZM185.577 53.0004H191.777C193.977 53.0004 195.577 52.6004 196.377 51.9004C197.277 51.1004 197.677 50.0004 197.677 48.6004C197.677 47.3004 197.277 46.2004 196.377 45.5004C195.477 44.7004 193.977 44.4004 191.777 44.4004H185.477V53.0004H185.577ZM185.577 71.1004H192.877C195.377 71.1004 197.077 70.7004 198.077 69.8004C199.077 68.9004 199.577 67.8004 199.577 66.3004C199.577 64.9004 199.077 63.8004 198.077 63.0004C197.077 62.2004 195.377 61.8004 192.877 61.8004H185.677V71.1004H185.577Z" fill="white"/>
<path d="M218.877 81.0004V34.9004H242.677C247.077 34.9004 250.477 35.3004 252.777 36.0004C255.077 36.8004 256.977 38.2004 258.377 40.2004C259.777 42.2004 260.477 44.7004 260.477 47.7004C260.477 50.3004 259.977 52.5004 258.877 54.3004C257.777 56.2004 256.277 57.7004 254.377 58.8004C253.177 59.5004 251.477 60.1004 249.377 60.6004C251.077 61.2004 252.277 61.7004 253.077 62.3004C253.577 62.7004 254.377 63.5004 255.377 64.7004C256.377 65.9004 257.077 66.9004 257.377 67.6004L264.277 81.0004H248.177L240.577 66.9004C239.577 65.1004 238.777 63.9004 237.977 63.3004C236.977 62.6004 235.777 62.2004 234.477 62.2004H233.177V80.9004H218.877V81.0004ZM233.277 53.6004H239.277C239.977 53.6004 241.177 53.4004 243.077 53.0004C243.977 52.8004 244.777 52.3004 245.377 51.6004C245.977 50.8004 246.277 49.9004 246.277 48.9004C246.277 47.4004 245.777 46.3004 244.877 45.5004C243.977 44.7004 242.177 44.3004 239.577 44.3004H233.277V53.6004Z" fill="white"/>
<path d="M294.676 73.4004H278.476L276.176 81.0004H261.576L278.876 34.9004H294.476L311.776 81.0004H296.876L294.676 73.4004ZM291.676 63.4004L286.576 46.8004L281.576 63.4004H291.676Z" fill="white"/>
<path d="M311.377 65.6996L324.977 64.8996C325.277 67.0996 325.877 68.7996 326.777 69.8996C328.277 71.7996 330.377 72.6996 333.077 72.6996C335.077 72.6996 336.677 72.1996 337.777 71.2996C338.877 70.2996 339.477 69.1996 339.477 67.9996C339.477 66.7996 338.977 65.6996 337.877 64.7996C336.777 63.8996 334.377 62.9996 330.577 62.0996C324.277 60.6996 319.877 58.7996 317.177 56.4996C314.477 54.1996 313.177 51.1996 313.177 47.5996C313.177 45.1996 313.877 42.9996 315.277 40.8996C316.677 38.7996 318.677 37.0996 321.477 35.8996C324.277 34.6996 327.977 34.0996 332.777 34.0996C338.677 34.0996 343.177 35.1996 346.277 37.3996C349.377 39.5996 351.177 43.0996 351.777 47.8996L338.377 48.6996C337.977 46.5996 337.277 45.0996 336.177 44.1996C335.077 43.2996 333.477 42.7996 331.477 42.7996C329.777 42.7996 328.577 43.1996 327.777 43.8996C326.977 44.5996 326.477 45.4996 326.477 46.4996C326.477 47.1996 326.777 47.8996 327.477 48.4996C328.177 49.0996 329.777 49.6996 332.277 50.1996C338.477 51.4996 342.977 52.8996 345.677 54.2996C348.377 55.6996 350.377 57.3996 351.577 59.3996C352.777 61.3996 353.377 63.6996 353.377 66.1996C353.377 69.1996 352.577 71.8996 350.877 74.3996C349.277 76.8996 346.977 78.7996 343.977 80.0996C341.077 81.3996 337.377 81.9996 332.877 81.9996C325.077 81.9996 319.577 80.4996 316.577 77.4996C313.477 74.1996 311.777 70.3996 311.377 65.6996Z" fill="white"/>
<path d="M372.677 34.9004H358.377V81.0004H372.677V34.9004Z" fill="white"/>
<path d="M380.377 34.9004H394.577V69.6004H416.877V81.0004H380.377V34.9004Z" fill="white"/>
<path d="M199.577 135.6H183.377L181.077 143.2H166.477L183.777 97.0996H199.377L216.677 143.2H201.777L199.577 135.6ZM196.577 125.7L191.477 109.1L186.477 125.7H196.577Z" fill="white"/>
<path d="M211.077 97.0996H254.377V108.5H239.877V143.3H225.577V108.5H211.077V97.0996Z" fill="white"/>
<path d="M288.277 97.0996H302.477V124.6C302.477 127.3 302.077 129.9 301.177 132.3C300.277 134.7 298.977 136.8 297.177 138.7C295.377 140.5 293.477 141.8 291.477 142.5C288.677 143.5 285.377 144 281.477 144C279.277 144 276.777 143.8 274.077 143.5C271.377 143.2 269.177 142.6 267.377 141.6C265.577 140.7 263.977 139.3 262.477 137.6C260.977 135.9 259.977 134.1 259.477 132.3C258.577 129.4 258.177 126.8 258.177 124.5V97.0996H272.377V125.2C272.377 127.7 273.077 129.7 274.477 131.1C275.877 132.5 277.777 133.2 280.277 133.2C282.777 133.2 284.677 132.5 286.077 131.1C287.477 129.7 288.177 127.7 288.177 125.2V97.0996H288.277Z" fill="white"/>
<path d="M335.577 135.6H319.377L317.077 143.2H302.477L319.777 97.0996H335.377L352.677 143.2H337.777L335.577 135.6ZM332.577 125.7L327.477 109.1L322.477 125.7H332.577Z" fill="white"/>
<path d="M354.977 143.3V97.0996H378.777C383.177 97.0996 386.577 97.4996 388.877 98.1996C391.177 98.9996 393.077 100.4 394.477 102.4C395.877 104.4 396.577 106.9 396.577 109.9C396.577 112.5 396.077 114.7 394.977 116.5C393.877 118.4 392.377 119.9 390.477 121C389.277 121.7 387.577 122.3 385.477 122.8C387.177 123.4 388.377 123.9 389.177 124.5C389.677 124.9 390.477 125.7 391.477 126.9C392.477 128.1 393.177 129.1 393.477 129.8L400.377 143.2H384.177L376.577 129.1C375.577 127.3 374.777 126.1 373.977 125.5C372.977 124.8 371.777 124.4 370.477 124.4H369.177V143.1H354.977V143.3ZM369.277 115.8H375.277C375.977 115.8 377.177 115.6 379.077 115.2C379.977 115 380.777 114.5 381.377 113.8C381.977 113 382.277 112.1 382.277 111.1C382.277 109.6 381.777 108.5 380.877 107.7C379.977 106.9 378.177 106.5 375.577 106.5H369.277V115.8Z" fill="white"/>
<path d="M417.177 97.0996H402.877V143.2H417.177V97.0996Z" fill="white"/>
<path d="M453.177 135.6H436.977L434.677 143.2H420.177L437.477 97.0996H453.077L470.377 143.2H455.477L453.177 135.6ZM450.277 125.7L445.177 109.1L440.177 125.7H450.277Z" fill="white"/>
<path d="M472.377 97.0996H486.677V131.9H508.877V143.3H472.377V97.0996Z" fill="white"/>
<path d="M43.7769 137.9C45.7769 133 47.7769 128.3 49.7769 123.5C58.1769 126.8 66.6769 128.3 75.6769 127.6C84.5769 126.9 92.7769 124.1 100.577 119.5C103.277 123.9 105.977 128.3 108.777 132.8C100.477 138 91.5769 141.2 81.9769 142.6C68.8769 144.6 56.1769 143 43.7769 137.9Z" fill="white"/>
<path d="M122.077 95.9C130.877 77.4 131.077 47.1 104.577 26.9C107.677 22.7 110.677 18.6 113.777 14.5C151.077 41.5 152.477 97.2 117.877 126.2C114.577 122.3 111.177 118.4 107.777 114.4C112.777 110 116.977 104.9 120.277 99" fill="white"/>
<path d="M107.577 87.9996C107.677 87.5996 107.777 87.1996 107.977 86.8996C110.977 79.5996 111.777 71.9996 110.277 64.1996C107.077 46.7996 91.7766 33.1996 74.1766 32.2996C73.1766 32.1996 72.9766 31.8996 72.9766 30.9996C72.9766 26.3996 72.9766 20.1996 72.9766 15.5996H69.9766C69.9766 20.2996 69.9766 26.4996 69.9766 31.0996C69.9766 31.9996 69.6766 32.2996 68.7766 32.2996C52.3766 33.1996 37.8766 44.8996 33.3766 60.7996C30.8766 69.4996 31.3766 78.1996 34.7766 86.5996C34.8766 86.8996 34.9766 87.1996 35.0766 87.3996C35.0766 87.4996 35.0766 87.5996 35.0766 87.7996C30.4766 90.4996 25.7766 93.0996 20.9766 95.8996L22.2766 98.5996C27.1766 95.7996 31.7766 93.0996 36.5766 90.2996C36.8766 90.7996 37.1766 91.1996 37.3766 91.5996C45.3766 105.3 61.3766 113 76.8766 110.7C89.3766 108.8 98.8766 102.4 105.477 91.5996C106.077 90.6996 106.477 90.5996 107.377 91.0996C111.277 93.3996 115.277 95.6996 119.177 97.8996C119.577 98.0996 119.977 98.4996 120.377 98.6996C120.977 97.3996 121.677 96.9996 122.077 96.0996C117.377 93.7996 112.277 90.6996 107.577 87.9996ZM70.6766 108.3C50.6766 107.9 34.5766 91.2996 34.8766 70.9996C35.0766 51.2996 51.8766 34.9996 71.4766 35.1996C92.1766 35.3996 108.377 51.7996 107.977 72.6996C107.577 93.0996 90.3766 108.7 70.6766 108.3Z" fill="white"/>
<path d="M37.6767 8.90002C11.7767 23.4 -1.12332 46.1 0.0766807 75.6C1.07668 100.4 13.2767 119.4 34.0767 133C36.8767 128.4 39.5767 124 42.2767 119.5C36.8767 116.2 32.3767 112.2 28.4767 107.5C28.4767 107.5 27.8767 106.8 27.0767 105.7C26.5767 105.1 26.1767 104.5 25.7767 103.9C25.7767 103.8 25.6767 103.8 25.6767 103.7C25.0767 102.9 24.5767 102 23.9767 101.2C23.4767 100.5 23.0767 99.7 22.6767 99C22.6767 98.9 22.5767 98.9 22.5767 98.8C21.9767 97.8 21.3767 96.7 20.8767 95.6C20.4767 94.7 20.0767 93.8 19.7767 92.9C18.5767 90.1 17.6767 87.3 17.0767 84.4C16.6767 82.9 16.5767 82 16.5767 82C16.5767 82 16.4767 81.2 16.3767 80.8C14.4767 68.5 16.3767 56.8 22.1767 45.8C27.7767 35.2 36.0767 27.2 46.7767 21.8C50.1767 20.1 53.6767 18.8 57.2767 17.9C57.2767 17.9 64.5767 15.9 71.4767 16C72.0767 16 72.7767 16 73.3767 16.1C73.4767 16.1 73.4767 16.1 73.5767 16.1C74.1767 16.1 74.7767 16.2 75.2767 16.2C78.2767 16.4 81.2767 16.8 84.1767 17.5C85.0767 17.7 85.6767 17.9 85.6767 17.9C90.4767 19.2 95.0767 21 99.5767 23.5C102.177 18.9 104.777 14.5 107.377 10.1C88.2767 -1.39998 60.6767 -3.99998 37.6767 8.90002Z" fill="white"/>
<path d="M186.577 5.8C186.077 4.8 185.377 4.10001 184.477 3.60001C183.577 3.10001 182.477 2.8 181.277 2.8C179.977 2.8 178.777 3.10001 177.777 3.70001C176.777 4.30001 175.977 5.10001 175.377 6.20001C174.777 7.30001 174.477 8.5 174.477 10C174.477 11.4 174.777 12.7 175.377 13.8C175.977 14.9 176.777 15.7 177.777 16.3C178.777 16.9 179.977 17.2 181.277 17.2C183.077 17.2 184.477 16.7 185.577 15.7C186.677 14.7 187.377 13.4 187.577 11.7H180.177V9.10001H191.177V11.6C190.977 13.1 190.377 14.6 189.577 15.9C188.677 17.2 187.577 18.2 186.077 19C184.677 19.8 183.077 20.2 181.377 20.2C179.477 20.2 177.777 19.8 176.277 18.9C174.777 18 173.477 16.8 172.577 15.3C171.677 13.8 171.177 12 171.177 10.1C171.177 8.20001 171.677 6.40001 172.577 4.90001C173.477 3.40001 174.677 2.1 176.277 1.3C177.877 0.400003 179.577 0 181.377 0C183.477 0 185.377 0.500006 186.977 1.60001C188.577 2.60001 189.777 4.1 190.577 6H186.577V5.8Z" fill="white"/>
<path d="M204.676 19.9996L200.076 11.9996H197.576V19.9996H194.276V0.0996094H201.176C202.676 0.0996094 203.976 0.399612 205.076 0.899612C206.176 1.39961 206.876 2.0996 207.476 2.9996C208.076 3.8996 208.276 4.8996 208.276 5.9996C208.276 7.2996 207.876 8.4996 207.176 9.4996C206.476 10.4996 205.276 11.2996 203.676 11.6996L208.576 19.8996H204.676V19.9996ZM197.576 9.39961H201.176C202.376 9.39961 203.276 9.0996 203.976 8.4996C204.576 7.8996 204.876 7.0996 204.876 5.9996C204.876 4.9996 204.576 4.19961 203.976 3.59961C203.376 2.99961 202.476 2.69962 201.176 2.69962H197.576V9.39961Z" fill="white"/>
<path d="M215.577 0.0996094V12.7996C215.577 14.2996 215.977 15.3996 216.777 16.1996C217.577 16.9996 218.677 17.2996 220.077 17.2996C221.477 17.2996 222.577 16.8996 223.377 16.1996C224.177 15.3996 224.577 14.2996 224.577 12.7996V0.0996094H227.877V12.6996C227.877 14.2996 227.477 15.6996 226.777 16.7996C226.077 17.8996 225.177 18.7996 223.977 19.2996C222.777 19.8996 221.477 20.0996 220.077 20.0996C218.677 20.0996 217.377 19.7996 216.177 19.2996C214.977 18.6996 214.077 17.8996 213.377 16.7996C212.677 15.6996 212.377 14.2996 212.377 12.6996V0.0996094H215.577Z" fill="white"/>
<path d="M245.277 8.89961C244.777 9.79961 244.077 10.4996 242.977 11.0996C241.977 11.6996 240.577 11.8996 238.977 11.8996H235.377V19.9996H232.077V0.0996094H238.977C240.477 0.0996094 241.777 0.399612 242.877 0.899612C243.977 1.39961 244.677 2.0996 245.277 2.9996C245.877 3.8996 246.077 4.8996 246.077 5.9996C245.977 6.9996 245.777 7.99961 245.277 8.89961ZM241.777 8.39961C242.377 7.79961 242.677 6.9996 242.677 5.9996C242.677 3.7996 241.477 2.69962 238.977 2.69962H235.377V9.19962H238.977C240.177 9.29962 241.177 8.99961 241.777 8.39961Z" fill="white"/>
<path d="M253.077 18.9C251.477 18 250.277 16.8 249.377 15.3C248.477 13.7 247.977 12 247.977 10.1C247.977 8.20001 248.477 6.40001 249.377 4.90001C250.277 3.40001 251.477 2.1 253.077 1.3C254.677 0.400003 256.377 0 258.177 0C260.077 0 261.777 0.400003 263.277 1.3C264.777 2.2 266.077 3.40001 266.977 4.90001C267.877 6.40001 268.277 8.20001 268.277 10.1C268.277 12 267.877 13.8 266.977 15.3C266.077 16.9 264.877 18.1 263.277 18.9C261.677 19.8 259.977 20.2 258.177 20.2C256.377 20.2 254.677 19.8 253.077 18.9ZM261.677 16.5C262.677 15.9 263.477 15 264.077 13.9C264.677 12.8 264.977 11.5 264.977 10C264.977 8.5 264.677 7.20001 264.077 6.10001C263.477 5.00001 262.677 4.10001 261.677 3.60001C260.677 3.00001 259.477 2.70001 258.177 2.70001C256.877 2.70001 255.677 3.00001 254.677 3.60001C253.677 4.20001 252.877 5.00001 252.277 6.10001C251.677 7.20001 251.377 8.5 251.377 10C251.377 11.5 251.677 12.8 252.277 13.9C252.877 15 253.677 15.9 254.677 16.5C255.677 17.1 256.877 17.4 258.177 17.4C259.477 17.4 260.677 17.1 261.677 16.5Z" fill="white"/>
</svg>
