<svg width="257" height="54" viewBox="0 0 257 54" fill="none" xmlns="http://www.w3.org/2000/svg">
<g clip-path="url(#clip0_59_172)">
<path d="M80.3943 23.659C80.6621 25.5749 80.7513 27.5204 80.6561 29.4363C80.5609 31.3581 80.2872 33.2859 79.829 35.1604C79.3708 37.0349 78.74 38.868 77.9426 40.6124L78.1806 40.7248C79.0256 38.9922 79.71 37.1531 80.2158 35.2668C80.7216 33.3686 81.0548 31.4232 81.1917 29.4777C81.3345 27.5263 81.2869 25.5395 81.0608 23.5822C80.8287 21.6131 80.4181 19.6676 79.829 17.799C79.2399 15.9245 78.4722 14.0973 77.5439 12.3588C76.6096 10.6203 75.5147 8.97639 74.2829 7.46851C73.0511 5.96063 71.6705 4.56509 70.1591 3.32331C68.6595 2.08743 67.0409 0.99939 65.3449 0.0887464L65.3211 0.0769199C65.1604 -0.00586592 64.976 -0.0176925 64.8034 0.0473535C64.6368 0.1124 64.4999 0.236578 64.4226 0.408063C64.3452 0.573635 64.3392 0.762859 64.3928 0.940258C64.4523 1.11766 64.5713 1.25957 64.7379 1.34236C66.3803 2.17022 67.9573 3.16956 69.4212 4.32265C70.8969 5.47574 72.2537 6.78257 73.4736 8.20176C74.6935 9.62685 75.7884 11.188 76.7287 12.8437C77.6689 14.5053 78.4544 16.2615 79.0673 18.0651C79.6802 19.8746 80.1265 21.7609 80.3943 23.6709V23.659Z" fill="#E30613"/>
<path d="M74.3067 18.3904C73.7235 16.847 73.0034 15.3569 72.1584 13.9673C71.3134 12.5717 70.3316 11.259 69.2426 10.0586C68.1476 8.85229 66.9456 7.75833 65.6662 6.81221C64.3868 5.86017 63.0062 5.03823 61.5602 4.36412C60.1201 3.69 58.6086 3.16963 57.0793 2.80893H57.0555C56.877 2.76753 56.6925 2.80893 56.5437 2.92128C56.395 3.02772 56.2998 3.19329 56.264 3.3766C56.2343 3.55991 56.27 3.74914 56.3712 3.90288C56.4723 4.06254 56.627 4.16898 56.8056 4.20446C58.2635 4.50012 59.7036 4.94953 61.0841 5.54086C62.4766 6.1381 63.8155 6.88317 65.0533 7.74651C66.3029 8.61576 67.4812 9.62101 68.5582 10.7445C69.6413 11.8681 70.6172 13.1098 71.4682 14.4226C72.3251 15.7472 73.063 17.1663 73.6699 18.6447C74.2769 20.1348 74.747 21.6841 75.0683 23.2452C75.3956 24.8181 75.5742 26.4384 75.6039 28.0586C75.6337 29.6788 75.5146 31.3109 75.2469 32.8957L75.3897 32.9193L75.5027 32.943C75.8181 31.3405 75.9848 29.6966 75.9967 28.0586C76.0145 26.4088 75.8776 24.7531 75.592 23.1447C75.3064 21.5303 74.866 19.9278 74.2888 18.3845L74.3067 18.3904Z" fill="#E30613"/>
<path d="M68.5881 31.2872C68.5881 43.6104 58.4956 53.6393 46.0943 53.6393C33.693 53.6393 23.6006 43.6104 23.6006 31.2872C23.6006 25.2024 26.0642 19.6794 30.0452 15.6466H7.58718C6.56365 15.6466 6.05189 16.2497 6.05189 17.4501V45.0947C6.05189 46.2951 6.56365 46.8982 7.58718 46.8982H23.8208C25.6833 49.5119 27.9922 51.7885 30.6462 53.6039H8.14654C5.54013 53.6039 3.58829 53.0658 2.30293 51.9836C1.01162 50.9074 0.261832 49.0861 0.0476058 46.5257C0.0178522 46.3719 0 46.1886 0 45.9698V16.575C0 16.3562 0.0178522 16.1728 0.0476058 16.0191C0.261832 13.4587 1.01757 11.6374 2.30293 10.5612C3.58829 9.47903 5.54013 8.94092 8.14654 8.94092H45.8742C45.9515 8.94092 46.0229 8.94092 46.0943 8.94092C58.4956 8.94092 68.5881 18.9698 68.5881 31.2931V31.2872ZM34.0977 42.1085C39.9413 41.1328 44.3627 36.6623 44.3627 31.2872C44.3627 25.912 39.9413 21.4416 34.0977 20.4659C31.4793 23.3279 29.8667 27.1183 29.8667 31.2872C29.8667 35.456 31.4793 39.2405 34.0977 42.1085ZM62.322 31.2872C62.322 22.3936 55.0442 15.1617 46.0943 15.1617C41.3933 15.1617 37.1682 17.1663 34.2048 20.3476C36.0376 19.3128 38.162 18.7215 40.4233 18.7215C47.4094 18.7215 53.0745 24.345 53.0745 31.2872C53.0745 38.2294 47.4094 43.8529 40.4233 43.8529C38.162 43.8529 36.0376 43.2556 34.2048 42.2267C37.1682 45.4081 41.3992 47.4127 46.0943 47.4127C55.0442 47.4127 62.322 40.1807 62.322 31.2872Z" fill="url(#paint0_linear_59_172)"/>
<path d="M139.158 17.8699H149.566C150.5 17.8699 151.297 18.0709 151.946 18.473C152.6 18.8751 153.13 19.3955 153.535 20.0341C153.939 20.6728 154.237 21.3824 154.421 22.1629C154.606 22.9435 154.701 23.7299 154.701 24.5105V36.6149C154.701 36.8574 154.576 36.9816 154.332 36.9816H141.449C140.711 36.9816 140.11 36.7569 139.64 36.3015C139.17 35.8521 138.807 35.3199 138.551 34.705C138.295 34.0959 138.116 33.4809 138.015 32.8718C137.914 32.2628 137.866 31.7956 137.866 31.4763C137.866 30.8909 137.938 30.2404 138.087 29.5308C138.235 28.8212 138.467 28.1649 138.789 27.5676C139.11 26.9704 139.527 26.4619 140.044 26.0479C140.562 25.634 141.187 25.427 141.925 25.427H148.09C148.727 25.427 149.238 25.2733 149.619 24.9658C150 24.6583 150.19 24.2976 150.19 23.8837C150.19 23.5407 150.065 23.1977 149.821 22.8548C149.577 22.5118 149.256 22.3403 148.863 22.3403H139.152C138.908 22.3403 138.783 22.2161 138.783 21.9737V18.2306C138.783 17.9881 138.908 17.864 139.152 17.864L139.158 17.8699ZM149.827 32.6944C150.071 32.6944 150.196 32.5703 150.196 32.3278V30.1281C150.196 29.8856 150.071 29.7615 149.827 29.7615H143.258C142.913 29.7615 142.633 29.9034 142.407 30.1813C142.187 30.4651 142.074 30.7726 142.074 31.1156C142.074 31.5295 142.199 31.8962 142.443 32.2155C142.687 32.5348 143.032 32.6944 143.478 32.6944H149.827ZM200.772 10.6793H204.538C204.782 10.6793 204.907 10.8035 204.907 11.046V36.6149C204.907 36.8574 204.782 36.9816 204.538 36.9816H200.772C200.528 36.9816 200.403 36.8574 200.403 36.6149V11.046C200.403 10.8035 200.528 10.6793 200.772 10.6793ZM209.228 20.0696C209.228 19.4605 209.466 18.9402 209.948 18.5085C210.43 18.0827 210.935 17.864 211.477 17.864H219.118C219.754 17.864 220.349 18.0118 220.891 18.3015C221.433 18.5972 221.825 18.8633 222.069 19.1057C222.194 19.2299 222.331 19.3718 222.492 19.5256C222.652 19.6852 222.754 19.7621 222.807 19.7621C222.861 19.7621 222.926 19.7207 223.009 19.632C223.093 19.5433 223.2 19.431 223.325 19.2831C223.45 19.1353 223.605 18.9757 223.789 18.8042C223.973 18.6327 224.2 18.4849 224.473 18.3666C224.967 18.1005 225.461 17.9467 225.967 17.9054C226.473 17.8699 226.8 17.8521 226.943 17.8521H229.567C230.579 17.8521 231.501 18.0414 232.334 18.4198C233.173 18.7983 233.893 19.2831 234.494 19.8686C235.095 20.454 235.565 21.1103 235.899 21.8318C236.232 22.5532 236.399 23.2569 236.399 23.9428V36.5972C236.399 36.8396 236.274 36.9638 236.03 36.9638H232.299C232.025 36.9638 231.894 36.8396 231.894 36.5972V24.4159C231.894 24.0256 231.805 23.6767 231.638 23.3692C231.465 23.0617 231.251 22.8015 230.989 22.5827C230.734 22.364 230.448 22.1984 230.138 22.086C229.829 21.9737 229.543 21.9205 229.27 21.9205H226.836C226.395 21.9205 225.955 22.086 225.527 22.4172C225.098 22.7483 224.878 23.2332 224.878 23.8659V36.5972C224.878 36.8396 224.753 36.9638 224.509 36.9638H220.742C220.498 36.9638 220.373 36.8396 220.373 36.5972V23.8659C220.373 23.3751 220.135 22.9316 219.653 22.5295C219.171 22.1274 218.648 21.9264 218.082 21.9264H214.684C214.411 21.9264 214.185 22.0387 214 22.2575C213.816 22.4763 213.72 22.7365 213.72 23.0262V36.5972C213.72 36.8396 213.595 36.9638 213.351 36.9638H209.585C209.341 36.9638 209.216 36.8396 209.216 36.5972V20.0519L209.228 20.0696ZM241.225 32.5111H251.02C251.365 32.5111 251.632 32.4579 251.829 32.3456C252.025 32.2332 252.18 32.0972 252.293 31.9257C252.406 31.7542 252.471 31.565 252.495 31.358C252.519 31.1511 252.531 30.9619 252.531 30.7904C252.531 30.4711 252.454 30.1577 252.293 29.8383C252.132 29.519 251.805 29.3594 251.317 29.3594H245.521C244.634 29.3594 243.885 29.2174 243.272 28.9395C242.659 28.6616 242.165 28.2654 241.796 27.7628C241.427 27.2601 241.153 26.6629 240.987 25.9651C240.814 25.2674 240.731 24.5046 240.731 23.6708C240.731 22.4467 240.874 21.4592 241.153 20.6964C241.433 19.9395 241.867 19.3541 242.445 18.9343C243.022 18.5203 243.76 18.2365 244.658 18.0887C245.557 17.9408 246.634 17.8699 247.889 17.8699H255.863C256.107 17.8699 256.232 17.994 256.232 18.2365V21.9796C256.232 22.222 256.107 22.3462 255.863 22.3462H246.193C245.801 22.3462 245.515 22.4881 245.343 22.7661C245.17 23.0499 245.087 23.3574 245.087 23.7004C245.087 24.0197 245.182 24.339 245.366 24.6524C245.551 24.9717 245.83 25.1314 246.199 25.1314H251.591C252.549 25.1314 253.376 25.2378 254.066 25.4448C254.757 25.6517 255.316 26.0006 255.744 26.4914C256.173 26.9822 256.494 27.6445 256.702 28.4901C256.911 29.3357 257.018 30.3942 257.018 31.6655C257.018 32.0322 256.964 32.517 256.851 33.1143C256.738 33.7115 256.536 34.3029 256.244 34.8764C255.947 35.45 255.536 35.9467 255.007 36.3607C254.477 36.7746 253.793 36.9816 252.959 36.9816H241.248C241.004 36.9816 240.879 36.8574 240.879 36.6149V32.8718C240.879 32.6294 241.004 32.5052 241.248 32.5052L241.225 32.5111ZM129.75 17.6866H133.516C133.76 17.6866 133.885 17.8107 133.885 18.0532V32.5052C133.885 33.2858 133.647 33.9599 133.165 34.5216C132.683 35.0834 132.059 35.5506 131.285 35.9172C130.511 36.2838 129.637 36.5558 128.667 36.7214C127.697 36.8929 126.715 36.9757 125.733 36.9757C124.751 36.9757 123.733 36.8929 122.764 36.7214C121.794 36.5499 120.925 36.2838 120.163 35.9172C119.401 35.5506 118.777 35.0834 118.3 34.5216C117.818 33.9599 117.58 33.2858 117.58 32.5052V18.0532C117.58 17.8107 117.705 17.6866 117.949 17.6866H121.716C121.96 17.6866 122.085 17.8107 122.085 18.0532V30.9323C122.085 31.1511 122.192 31.358 122.401 31.5532C122.609 31.7483 122.883 31.9198 123.21 32.0676C123.543 32.2155 123.93 32.3219 124.37 32.3988C124.811 32.4697 125.269 32.5111 125.739 32.5111C126.209 32.5111 126.655 32.4757 127.084 32.3988C127.512 32.3278 127.899 32.2155 128.244 32.0676C128.589 31.9198 128.863 31.7483 129.077 31.5532C129.286 31.358 129.393 31.1511 129.393 30.9323V18.0532C129.393 17.8107 129.518 17.6866 129.762 17.6866H129.75ZM96.1995 29.046H97.223C99.6092 29.046 101.543 27.3962 101.543 25.362V10.6793H96.1995V29.046ZM109.273 32.1682H96.1995C96.1995 34.8291 98.3715 36.9875 101.049 36.9875H113.409C113.409 34.3265 111.558 32.1682 109.273 32.1682ZM168.554 36.9816H173.934V33.41C173.934 31.3699 171.988 29.7201 169.59 29.7201H168.56V36.9816H168.554ZM173.934 10.6379H173.285C170.673 10.6379 168.554 12.7431 168.554 15.339V26.0893H185.46C185.752 26.0893 185.99 25.8528 185.99 25.563V21.8613C185.99 21.5716 185.752 21.335 185.46 21.335H174.327C174.112 21.335 173.934 21.1576 173.934 20.9448V10.6498V10.6379ZM182.086 15.3804H187.275V11.0105C187.275 10.8035 187.109 10.6379 186.9 10.6379H176.505C176.505 13.2575 179.004 15.3804 182.086 15.3804ZM191.596 18.3015C191.596 18.0591 191.721 17.9349 191.965 17.9349H195.731C195.975 17.9349 196.1 18.0591 196.1 18.3015V36.68C196.1 36.9224 195.975 37.0466 195.731 37.0466H191.965C191.721 37.0466 191.596 36.9224 191.596 36.68V18.3015ZM191.965 10.7444H195.731C195.975 10.7444 196.1 10.8686 196.1 11.111V14.8541C196.1 15.0965 195.975 15.2207 195.731 15.2207H191.965C191.721 15.2207 191.596 15.0965 191.596 14.8541V11.111C191.596 10.8686 191.721 10.7444 191.965 10.7444Z" fill="url(#paint1_linear_59_172)"/>
<path d="M100.436 47.2648C100.436 48.483 99.4842 49.3995 98.2107 49.3995H96.6457V51.7944H95.8066V45.1301H98.2107C99.4782 45.1301 100.436 46.0349 100.436 47.2648ZM99.5735 47.2648C99.5735 46.502 98.9843 45.9402 98.1631 45.9402H96.6457V48.5894H98.1631C98.9843 48.5894 99.5735 48.0217 99.5735 47.2648Z" fill="#606060"/>
<path d="M104.394 49.1866H102.864V51.7944H102.025V45.1301H104.566C105.822 45.1301 106.75 45.9816 106.75 47.1643C106.75 48.1045 106.155 48.8318 105.268 49.0861L106.875 51.7885H105.929L104.388 49.1807L104.394 49.1866ZM102.87 48.3943H104.53C105.352 48.3943 105.899 47.8798 105.899 47.1584C105.899 46.437 105.352 45.9225 104.53 45.9225H102.87V48.3943Z" fill="#606060"/>
<path d="M108.125 48.4653C108.125 46.4961 109.606 45.0178 111.636 45.0178C113.665 45.0178 115.147 46.4961 115.147 48.4653C115.147 50.4344 113.665 51.9068 111.636 51.9068C109.606 51.9068 108.125 50.4285 108.125 48.4653ZM114.284 48.4653C114.284 46.9633 113.159 45.8398 111.636 45.8398C110.112 45.8398 108.982 46.9751 108.982 48.4653C108.982 49.9554 110.106 51.0908 111.636 51.0908C113.165 51.0908 114.284 49.9672 114.284 48.4653Z" fill="#606060"/>
<path d="M122.537 48.4652C122.537 50.3989 121.109 51.7944 119.139 51.7944H116.902V45.1301H119.139C121.115 45.1301 122.537 46.5316 122.537 48.4593V48.4652ZM121.68 48.4652C121.68 46.9928 120.615 45.9166 119.11 45.9166H117.741V51.0138H119.11C120.615 51.0138 121.68 49.9376 121.68 48.4652Z" fill="#606060"/>
<path d="M124.227 49.3167V45.136H125.078V49.2575C125.078 50.3515 125.822 51.0907 126.863 51.0907C127.905 51.0907 128.643 50.3515 128.643 49.2575V45.136H129.494V49.3167C129.494 50.8364 128.369 51.9067 126.863 51.9067C125.358 51.9067 124.227 50.8305 124.227 49.3167Z" fill="#606060"/>
<path d="M134.802 51.8949L134.712 52.2023C135.236 52.2733 135.593 52.6222 135.593 53.0834C135.593 53.6215 135.099 54 134.433 54H133.79V53.5033H134.427C134.736 53.5033 134.95 53.3318 134.95 53.0775C134.95 52.8232 134.736 52.6517 134.415 52.6517H134.159L134.07 52.5276L134.23 51.883C132.433 51.7174 131.166 50.3397 131.166 48.4652C131.166 46.4665 132.612 45.0295 134.605 45.0295C136.158 45.0295 137.402 45.9461 137.783 47.383H136.926C136.569 46.4192 135.706 45.8456 134.605 45.8456C133.112 45.8456 132.029 46.9277 132.029 48.4652C132.029 50.0026 133.112 51.0847 134.605 51.0847C135.736 51.0847 136.611 50.4698 136.956 49.4468H137.813C137.444 50.8896 136.289 51.818 134.802 51.8949Z" fill="#606060"/>
<path d="M143.293 50.2037H140.068L139.414 51.8003H138.521L141.264 45.136H142.05L144.87 51.8003H143.96L143.293 50.2037ZM141.425 43.912C141.258 43.7464 141.11 43.6163 140.925 43.6163C140.663 43.6163 140.479 43.8469 140.479 44.2313V44.3377H139.973V44.2076C139.973 43.504 140.324 43.0427 140.919 43.0427C141.336 43.0427 141.556 43.2556 141.782 43.4626C141.966 43.6518 142.127 43.7996 142.377 43.7996C142.645 43.7996 142.817 43.5808 142.817 43.1846V43.1019H143.335V43.2024C143.335 43.912 142.972 44.3732 142.389 44.3732C141.931 44.3732 141.663 44.1367 141.437 43.912H141.425ZM140.384 49.435H142.978L141.669 46.2832L140.384 49.435Z" fill="#606060"/>
<path d="M145.644 48.4653C145.644 46.4961 147.126 45.0178 149.155 45.0178C151.184 45.0178 152.666 46.4961 152.666 48.4653C152.666 50.4344 151.184 51.9068 149.155 51.9068C147.126 51.9068 145.644 50.4285 145.644 48.4653ZM151.809 48.4653C151.809 46.9633 150.684 45.8398 149.161 45.8398C147.638 45.8398 146.507 46.9751 146.507 48.4653C146.507 49.9554 147.632 51.0908 149.161 51.0908C150.69 51.0908 151.809 49.9672 151.809 48.4653Z" fill="#606060"/>
<path d="M162.217 50.2037H158.997L158.343 51.8002H157.45L160.193 45.136H160.979L163.8 51.8002H162.889L162.223 50.2037H162.217ZM159.313 49.4349H161.907L160.598 46.2832L159.313 49.4349Z" fill="#606060"/>
<path d="M164.948 49.3167V45.136H165.799V49.2575C165.799 50.3515 166.543 51.0907 167.584 51.0907C168.626 51.0907 169.364 50.3515 169.364 49.2575V45.136H170.215V49.3167C170.215 50.8364 169.09 51.9067 167.584 51.9067C166.079 51.9067 164.948 50.8305 164.948 49.3167Z" fill="#606060"/>
<path d="M177.98 48.4652C177.98 50.3989 176.552 51.7944 174.582 51.7944H172.345V45.1301H174.582C176.558 45.1301 177.98 46.5316 177.98 48.4593V48.4652ZM177.123 48.4652C177.123 46.9928 176.058 45.9166 174.553 45.9166H173.184V51.0138H174.553C176.058 51.0138 177.123 49.9376 177.123 48.4652Z" fill="#606060"/>
<path d="M179.748 45.136H180.587V51.8002H179.748V45.136Z" fill="#606060"/>
<path d="M182.348 48.4653C182.348 46.4961 183.83 45.0178 185.859 45.0178C187.888 45.0178 189.37 46.4961 189.37 48.4653C189.37 50.4344 187.888 51.9068 185.859 51.9068C183.83 51.9068 182.348 50.4285 182.348 48.4653ZM188.507 48.4653C188.507 46.9633 187.382 45.8398 185.853 45.8398C184.324 45.8398 183.199 46.9751 183.199 48.4653C183.199 49.9554 184.324 51.0908 185.853 51.0908C187.382 51.0908 188.507 49.9672 188.507 48.4653Z" fill="#606060"/>
<path d="M196.309 45.136L193.643 51.8002H192.869L190.156 45.136H191.084L193.256 50.5466L195.386 45.136H196.309Z" fill="#606060"/>
<path d="M197.814 45.136H198.653V51.8002H197.814V45.136Z" fill="#606060"/>
<path d="M200.391 49.7424H201.247C201.247 50.5703 201.926 51.0611 202.854 51.0611C203.693 51.0611 204.36 50.6176 204.36 49.9139C204.36 49.1334 203.562 48.9501 202.693 48.749C201.658 48.5066 200.51 48.2286 200.51 46.9041C200.51 45.751 201.402 45.0532 202.795 45.0532C204.187 45.0532 205.032 45.8219 205.032 47.0283H204.199C204.199 46.2891 203.592 45.8515 202.771 45.8515C201.95 45.8515 201.349 46.2359 201.349 46.8686C201.349 47.6018 202.116 47.7852 202.979 47.9862C204.032 48.2405 205.223 48.5184 205.223 49.908C205.223 51.1675 204.193 51.883 202.854 51.883C201.378 51.883 200.379 51.0552 200.379 49.7424H200.391Z" fill="#606060"/>
<path d="M206.889 49.3167V45.136H207.74V49.2575C207.74 50.3515 208.478 51.0907 209.525 51.0907C210.572 51.0907 211.304 50.3515 211.304 49.2575V45.136H212.155V49.3167C212.155 50.8364 211.037 51.9067 209.525 51.9067C208.014 51.9067 206.889 50.8305 206.889 49.3167Z" fill="#606060"/>
<path d="M218.052 50.2037H214.833L214.178 51.8002H213.286L216.029 45.136H216.815L219.635 51.8002H218.725L218.058 50.2037H218.052ZM215.148 49.4349H217.743L216.434 46.2832L215.148 49.4349Z" fill="#606060"/>
<path d="M224.878 51.0138V51.7944H221.093V45.1301H221.932V51.0079H224.878V51.0138Z" fill="#606060"/>
<path d="M20.0658 5.78311H8.9856L9.99127 3.91451C10.509 2.95065 11.3897 2.36523 12.3359 2.36523H18.6079C19.5541 2.36523 20.4288 2.94473 20.9525 3.91451L21.9582 5.78311H20.0599H20.0658Z" fill="#E30613"/>
</g>
<defs>
<linearGradient id="paint0_linear_59_172" x1="0" y1="31.2872" x2="68.5881" y2="31.2872" gradientUnits="userSpaceOnUse">
<stop offset="0.37"/>
<stop offset="0.57" stop-color="#101010"/>
<stop offset="0.97" stop-color="#3B3B3B"/>
<stop offset="1" stop-color="#3F3F3F"/>
</linearGradient>
<linearGradient id="paint1_linear_59_172" x1="96.1995" y1="23.8423" x2="257" y2="23.8423" gradientUnits="userSpaceOnUse">
<stop offset="0.37"/>
<stop offset="0.57" stop-color="#101010"/>
<stop offset="0.97" stop-color="#3B3B3B"/>
<stop offset="1" stop-color="#3F3F3F"/>
</linearGradient>
<clipPath id="clip0_59_172">
<rect width="257" height="54" fill="white"/>
</clipPath>
</defs>
</svg>
