<svg width="143" height="144" viewBox="0 0 143 144" fill="none" xmlns="http://www.w3.org/2000/svg">
<path d="M43.877 137.9C45.877 133 47.877 128.3 49.877 123.5C58.277 126.8 66.777 128.3 75.777 127.6C84.677 126.9 92.877 124.1 100.677 119.5C103.377 123.9 106.077 128.3 108.877 132.8C100.577 138 91.6769 141.2 82.077 142.6C68.9769 144.6 56.277 143 43.877 137.9Z" fill="#20477A"/>
<path d="M122.076 95.9C130.876 77.4 131.076 47.1 104.576 26.9C107.676 22.7 110.676 18.6 113.776 14.5C151.076 41.5 152.476 97.2 117.876 126.2C114.576 122.3 111.176 118.4 107.776 114.4C112.776 110 116.976 104.9 120.276 99" fill="#20477A"/>
<path d="M107.676 87.9996C107.776 87.5996 107.876 87.1996 108.076 86.8996C111.076 79.5996 111.876 71.9996 110.376 64.1996C107.176 46.7996 91.8762 33.1996 74.2762 32.2996C73.2762 32.1996 73.0762 31.8996 73.0762 30.9996C73.0762 26.3996 73.0762 20.1996 73.0762 15.5996H70.0762C70.0762 20.2996 70.0762 26.4996 70.0762 31.0996C70.0762 31.9996 69.7762 32.2996 68.8762 32.2996C52.4762 33.1996 37.9762 44.8996 33.4762 60.7996C30.9762 69.4996 31.4762 78.1996 34.8762 86.5996C34.9762 86.8996 35.0762 87.1996 35.1762 87.3996C35.1762 87.4996 35.1762 87.5996 35.1762 87.7996C30.5762 90.4996 25.8762 93.0996 21.0762 95.8996L22.3762 98.5996C27.2762 95.7996 31.8762 93.0996 36.6762 90.2996C36.9762 90.7996 37.2762 91.1996 37.4762 91.5996C45.4762 105.3 61.4762 113 76.9762 110.7C89.4762 108.8 98.9762 102.4 105.576 91.5996C106.176 90.6996 106.576 90.5996 107.476 91.0996C111.376 93.3996 115.376 95.6996 119.276 97.8996C119.676 98.0996 120.076 98.4996 120.476 98.6996C121.076 97.3996 121.776 96.9996 122.176 96.0996C117.476 93.7996 112.276 90.6996 107.676 87.9996ZM70.7762 108.3C50.7762 107.9 34.6762 91.2996 34.9762 70.9996C35.1762 51.2996 51.9762 34.9996 71.5762 35.1996C92.2762 35.3996 108.476 51.7996 108.076 72.6996C107.676 93.0996 90.4762 108.7 70.7762 108.3Z" fill="#20477A"/>
<path d="M37.6767 8.90001C11.7767 23.4 -1.12332 46.1 0.0766807 75.6C1.07668 100.4 13.2767 119.4 34.0767 133C36.8767 128.4 39.5767 124 42.2767 119.5C36.8767 116.2 32.3767 112.2 28.4767 107.5C28.4767 107.5 27.8767 106.8 27.0767 105.7C26.5767 105.1 26.1767 104.5 25.7767 103.9C25.7767 103.8 25.6767 103.8 25.6767 103.7C25.0767 102.9 24.5767 102 23.9767 101.2C23.4767 100.5 23.0767 99.7 22.6767 99C22.6767 98.9 22.5767 98.9 22.5767 98.8C21.9767 97.8 21.3767 96.7 20.8767 95.6C20.4767 94.7 20.0767 93.8 19.7767 92.9C18.5767 90.1 17.6767 87.3 17.0767 84.4C16.6767 82.9 16.5767 82 16.5767 82C16.5767 82 16.4767 81.2 16.3767 80.8C14.4767 68.5 16.3767 56.8 22.1767 45.8C27.7767 35.2 36.0767 27.2 46.7767 21.8C50.1767 20.1 53.6767 18.8 57.2767 17.9C57.2767 17.9 64.5767 15.9 71.4767 16C72.0767 16 72.7767 16 73.3767 16.1C73.4767 16.1 73.4767 16.1 73.5767 16.1C74.1767 16.1 74.7767 16.2 75.2767 16.2C78.2767 16.4 81.2767 16.8 84.1767 17.5C85.0767 17.7 85.6767 17.9 85.6767 17.9C90.4767 19.2 95.0767 21 99.5767 23.5C102.177 18.9 104.777 14.5 107.377 10.1C88.3767 -1.39997 60.6767 -3.99999 37.6767 8.90001Z" fill="#20477A"/>
</svg>
